<?xml version="1.0" encoding="utf-8"?>
<!-- Generator: Adobe Illustrator 21.0.0, SVG Export Plug-In . SVG Version: 6.00 Build 0)  -->
<svg version="1.1" id="Capa_1" xmlns="http://www.w3.org/2000/svg" xmlns:xlink="http://www.w3.org/1999/xlink" x="0px" y="0px"
	 viewBox="0 0 512 512" style="enable-background:new 0 0 512 512;" xml:space="preserve">
<style type="text/css">
	.st0{fill:#FFFFFF;}
</style>
<g>
	<g>
		<path class="st0" d="M453,132.6L268.8,23.3c-6.9-4.1-15.4-4.1-22.3-0.2L59.8,127.8c-6.9,3.9-11.3,11.2-11.3,19.1l-2.6,214.2
			c-0.2,8,4.1,15.4,11,19.5l184.2,109.3c3.5,2,7.4,3.2,11.3,3.2c3.7,0,7.4-0.9,11-2.8l186.8-104.9c6.9-3.9,11.3-11.2,11.3-19.1
			l2.6-214.2C464.1,144.1,459.9,136.7,453,132.6z M230.5,431.9L90.7,349l2-162.3l139.8,82.7L230.5,431.9z M255.2,231L115,148
			l142-79.8l140.2,83.1L255.2,231z M416.9,352.9l-141.8,79.6l2-162.7L419,190.4L416.9,352.9z"/>
	</g>
</g>
</svg>
